<svg xmlns="http://www.w3.org/2000/svg" width="1200" height="620" viewBox="0 0 1200 620">
  <rect width="1200" height="620" fill="#0f172a"/>
  <rect x="40" y="40" width="1120" height="540" rx="24" fill="#111827" stroke="#38bdf8" stroke-width="2"/>
  <text x="600" y="95" text-anchor="middle" font-family="Segoe UI, Arial, sans-serif" font-size="30" font-weight="700" fill="#f8fafc">AWS-Based Superstore EDA Architecture</text>

  <rect x="120" y="150" width="220" height="90" rx="16" fill="#1d4ed8"/>
  <text x="230" y="190" text-anchor="middle" font-family="Segoe UI, Arial, sans-serif" font-size="20" font-weight="600" fill="#f8fafc">Superstore Dataset</text>
  <text x="230" y="218" text-anchor="middle" font-family="Segoe UI, Arial, sans-serif" font-size="16" fill="#dbeafe">.xlsx File</text>

  <rect x="430" y="150" width="300" height="90" rx="16" fill="#2563eb"/>
  <text x="580" y="190" text-anchor="middle" font-family="Segoe UI, Arial, sans-serif" font-size="20" font-weight="600" fill="#f8fafc">Python EDA Application</text>
  <text x="580" y="218" text-anchor="middle" font-family="Segoe UI, Arial, sans-serif" font-size="16" fill="#dbeafe">Pandas • NumPy • Matplotlib • Seaborn</text>

  <rect x="820" y="150" width="220" height="90" rx="16" fill="#0ea5e9"/>
  <text x="930" y="190" text-anchor="middle" font-family="Segoe UI, Arial, sans-serif" font-size="20" font-weight="600" fill="#f8fafc">Ubuntu EC2 Instance</text>
  <text x="930" y="218" text-anchor="middle" font-family="Segoe UI, Arial, sans-serif" font-size="16" fill="#e0f2fe">Deploy & Execute</text>

  <rect x="180" y="330" width="220" height="90" rx="16" fill="#059669"/>
  <text x="290" y="370" text-anchor="middle" font-family="Segoe UI, Arial, sans-serif" font-size="20" font-weight="600" fill="#f8fafc">Amazon S3</text>
  <text x="290" y="398" text-anchor="middle" font-family="Segoe UI, Arial, sans-serif" font-size="16" fill="#dcfce7">Store Charts & Reports</text>

  <rect x="470" y="330" width="260" height="90" rx="16" fill="#f59e0b"/>
  <text x="600" y="370" text-anchor="middle" font-family="Segoe UI, Arial, sans-serif" font-size="20" font-weight="600" fill="#111827">CloudWatch Agent</text>
  <text x="600" y="398" text-anchor="middle" font-family="Segoe UI, Arial, sans-serif" font-size="16" fill="#78350f">Metrics & Logs</text>

  <rect x="820" y="330" width="220" height="90" rx="16" fill="#ef4444"/>
  <text x="930" y="370" text-anchor="middle" font-family="Segoe UI, Arial, sans-serif" font-size="20" font-weight="600" fill="#f8fafc">CloudWatch</text>
  <text x="930" y="398" text-anchor="middle" font-family="Segoe UI, Arial, sans-serif" font-size="16" fill="#fee2e2">Monitoring Dashboard</text>

  <path d="M340 195 L430 195" stroke="#38bdf8" stroke-width="4" fill="none" marker-end="url(#arrow)"/>
  <path d="M730 195 L820 195" stroke="#38bdf8" stroke-width="4" fill="none" marker-end="url(#arrow)"/>
  <path d="M930 240 L930 330" stroke="#38bdf8" stroke-width="4" fill="none" marker-end="url(#arrow)"/>
  <path d="M820 375 L730 375" stroke="#38bdf8" stroke-width="4" fill="none" marker-end="url(#arrow)"/>
  <path d="M470 375 L400 375" stroke="#38bdf8" stroke-width="4" fill="none" marker-end="url(#arrow)"/>

  <defs>
    <marker id="arrow" markerWidth="10" markerHeight="10" refX="8" refY="3" orient="auto" markerUnits="strokeWidth">
      <path d="M0,0 L0,6 L9,3 z" fill="#38bdf8"/>
    </marker>
  </defs>
</svg>
